<svg width="133" height="31" viewBox="0 0 133 31" fill="none" xmlns="http://www.w3.org/2000/svg">
<mask id="mask0_43_658" style="mask-type:luminance" maskUnits="userSpaceOnUse" x="0" y="8" width="14" height="15">
<path d="M8.82405 9.71524C6.95331 8.81451 2.58827 7.56736 0.871501 11.1241C-0.552721 14.0726 -0.460339 20.1698 2.9193 21.8019C6.13727 23.357 11.0104 19.9773 12.5578 16.7594C14.3054 13.1565 10.7025 10.6237 8.82405 9.71524Z" fill="white"/>
</mask>
<g mask="url(#mask0_43_658)">
<path d="M14.3054 7.56714H-0.552734V23.3568H14.3054V7.56714Z" fill="url(#paint0_linear_43_658)"/>
</g>
<mask id="mask1_43_658" style="mask-type:luminance" maskUnits="userSpaceOnUse" x="0" y="8" width="8" height="13">
<path d="M4.42051 8.7605C3.01169 8.86828 1.66445 9.48416 0.871505 11.1162C-0.298666 13.5336 -0.444938 18.0603 1.395 20.5161C4.77464 20.3852 7.48451 17.5984 7.48451 14.1879C7.48451 11.8861 6.25275 9.87678 4.42051 8.7605Z" fill="white"/>
</mask>
<g mask="url(#mask1_43_658)">
<path d="M7.48414 8.7605H-0.445312V20.5161H7.48414V8.7605Z" fill="url(#paint1_linear_43_658)"/>
</g>
<path fill-rule="evenodd" clip-rule="evenodd" d="M5.42881 15.5968C5.20556 15.6738 4.9746 15.9278 4.85142 16.2665C4.78214 16.4513 4.65126 16.9055 4.91301 16.9979C5.16706 17.0903 5.36722 16.6669 5.43651 16.4821C5.55969 16.1434 5.55199 15.8046 5.42881 15.5968ZM7.44582 16.4051C7.23026 16.4821 7.0224 16.7131 6.90692 17.0287C6.84534 17.1981 6.72216 17.6292 6.96081 17.7139C7.19947 17.8062 7.38423 17.3982 7.45352 17.2289C7.56899 16.9209 7.5536 16.6053 7.44582 16.4051ZM10.0248 14.7422C9.80156 14.8269 9.5706 15.0733 9.44743 15.412C9.37814 15.5968 9.24727 16.051 9.50901 16.1434C9.76306 16.2358 9.96323 15.8123 10.0325 15.6276C10.1557 15.2888 10.1403 14.9501 10.0248 14.7422ZM7.39963 13.7645C7.17637 13.8492 6.94542 14.0956 6.82224 14.4343C6.75295 14.6191 6.62208 15.0733 6.88383 15.1657C7.13788 15.258 7.33804 14.8346 7.40733 14.6499C7.5305 14.3034 7.5228 13.9724 7.39963 13.7645ZM4.78214 12.7791C4.55888 12.8561 4.32793 13.1102 4.20475 13.4489C4.13546 13.6337 4.00459 14.0879 4.26634 14.1803C4.52039 14.2726 4.72055 13.8492 4.78984 13.6645C4.90531 13.3257 4.89762 12.987 4.78214 12.7791ZM2.68045 12.1017C2.45719 12.1786 2.22624 12.4327 2.10306 12.7714C2.03377 12.9562 1.9029 13.4104 2.16465 13.5028C2.4187 13.5952 2.61886 13.1718 2.68815 12.987C2.81132 12.6483 2.80362 12.3095 2.68045 12.1017ZM4.42031 10.4927C4.22785 10.562 4.03538 10.7775 3.92761 11.0701C3.86602 11.2317 3.75824 11.6167 3.98149 11.7013C4.20475 11.786 4.37412 11.4165 4.42801 11.2548C4.52809 10.9623 4.52039 10.6697 4.42031 10.4927ZM7.33034 11.3857C7.09939 11.4319 6.83764 11.6398 6.66057 11.9477C6.56819 12.1171 6.36803 12.5405 6.60668 12.679C6.84534 12.8099 7.10708 12.425 7.19947 12.2479C7.37653 11.94 7.41502 11.609 7.33034 11.3857ZM9.62449 12.4943C9.43973 12.5636 9.25496 12.7637 9.15488 13.0332C9.10099 13.1794 8.99322 13.549 9.20107 13.626C9.40893 13.7029 9.5706 13.3565 9.62449 13.2025C9.73227 12.9408 9.72457 12.6637 9.62449 12.4943ZM2.54188 17.6292C2.33402 17.7062 2.12616 17.9294 2.01068 18.2451C1.94909 18.4144 1.83361 18.8301 2.06457 18.9148C2.30322 18.9995 2.48029 18.6069 2.54188 18.4375C2.66505 18.1296 2.64965 17.8216 2.54188 17.6292ZM4.4896 19.115C4.28174 19.192 4.07388 19.4152 3.9584 19.7309C3.89681 19.9002 3.77364 20.316 4.01229 20.4006C4.25094 20.4853 4.42801 20.0927 4.4896 19.9233C4.60507 19.6154 4.59737 19.3075 4.4896 19.115ZM3.13466 14.9424C2.9268 15.0194 2.71894 15.2426 2.60346 15.5583C2.54188 15.7277 2.4187 16.1434 2.65735 16.2281C2.89601 16.3127 3.07307 15.9201 3.13466 15.7507C3.25014 15.4428 3.24244 15.1349 3.13466 14.9424Z" fill="#E60000"/>
<mask id="mask2_43_658" style="mask-type:luminance" maskUnits="userSpaceOnUse" x="6" y="0" width="15" height="13">
<path d="M6.74512 0.846834C8.58506 2.32495 10.5251 4.31116 11.7799 6.38205C13.4505 9.26129 12.9116 12.2868 12.9116 12.2868C13.9278 8.79938 16.5145 8.38366 18.493 6.21269C19.6555 4.93473 20.5254 3.11789 20.4946 0.546593C20.1328 0.115477 13.7354 0.0769844 12.8346 5.53522C12.0648 3.96472 10.8253 1.93232 8.92379 0C8.17704 0.215558 7.44568 0.500402 6.74512 0.846834Z" fill="white"/>
</mask>
<g mask="url(#mask2_43_658)">
<path d="M13.6351 19.1767L26.6687 6.14317L13.6351 -6.89038L0.601562 6.14317L13.6351 19.1767Z" fill="url(#paint2_linear_43_658)"/>
</g>
<mask id="mask3_43_658" style="mask-type:luminance" maskUnits="userSpaceOnUse" x="12" y="0" width="9" height="13">
<path d="M12.9506 10.1232C13.0738 11.3935 12.9121 12.2865 12.9121 12.2865C13.9283 8.7991 16.515 8.38338 18.4935 6.2124C19.5867 5.00374 20.4258 3.31777 20.4874 0.969727C20.1256 1.87815 19.4789 2.91745 18.3319 3.74119C15.7144 5.61192 13.0969 7.85218 12.9506 10.1232Z" fill="white"/>
</mask>
<g mask="url(#mask3_43_658)">
<path d="M16.7 16.074L26.146 6.62794L16.7 -2.81812L7.25391 6.62794L16.7 16.074Z" fill="url(#paint3_linear_43_658)"/>
</g>
<mask id="mask4_43_658" style="mask-type:luminance" maskUnits="userSpaceOnUse" x="4" y="3" width="9" height="9">
<path d="M4.0127 3.20989C4.0127 3.20989 4.12047 7.37478 7.96202 8.61423C10.1022 9.47647 11.6111 10.5004 12.3656 11.5782C11.8652 6.81279 9.75577 3.01743 4.0127 3.20989Z" fill="white"/>
</mask>
<g mask="url(#mask4_43_658)">
<path d="M12.3656 3.01733H4.0127V11.5858H12.3656V3.01733Z" fill="url(#paint4_linear_43_658)"/>
</g>
<mask id="mask5_43_658" style="mask-type:luminance" maskUnits="userSpaceOnUse" x="4" y="3" width="9" height="9">
<path d="M4.0127 3.20989C4.0127 3.20989 4.02809 3.75648 4.22825 4.50324C4.22825 4.50324 10.8951 4.46474 12.3656 11.5782C11.8652 6.81279 9.75577 3.01743 4.0127 3.20989Z" fill="white"/>
</mask>
<g mask="url(#mask5_43_658)">
<path d="M14.514 3.58702L4.57522 0.92334L1.87305 11.0084L11.8118 13.672L14.514 3.58702Z" fill="url(#paint5_linear_43_658)"/>
</g>
<mask id="mask6_43_658" style="mask-type:luminance" maskUnits="userSpaceOnUse" x="5" y="15" width="16" height="16">
<path d="M12.8951 15.4895C16.9137 15.4895 20.1779 18.746 20.1779 22.7723C20.1779 26.7909 16.9214 30.0551 12.8951 30.0551C8.87647 30.0551 5.6123 26.7986 5.6123 22.7723C5.6123 18.746 8.86877 15.4895 12.8951 15.4895Z" fill="white"/>
</mask>
<g mask="url(#mask6_43_658)">
<path d="M20.1779 15.4895H5.6123V30.0551H20.1779V15.4895Z" fill="url(#paint6_linear_43_658)"/>
</g>
<mask id="mask7_43_658" style="mask-type:luminance" maskUnits="userSpaceOnUse" x="10" y="15" width="11" height="16">
<path d="M14.3221 15.6272C17.6633 16.2893 20.173 19.2378 20.173 22.7714C20.173 26.79 16.9165 30.0542 12.8902 30.0542C12.0973 30.0542 11.3351 29.9233 10.6191 29.6923C15.2921 30.0465 19.0798 20.5696 14.3221 15.6272Z" fill="white"/>
</mask>
<g mask="url(#mask7_43_658)">
<path d="M20.173 15.6272H10.6191V30.0465H20.173V15.6272Z" fill="url(#paint7_linear_43_658)"/>
</g>
<mask id="mask8_43_658" style="mask-type:luminance" maskUnits="userSpaceOnUse" x="5" y="15" width="9" height="13">
<path d="M7.6832 27.8609C6.39755 26.5521 5.6123 24.7507 5.6123 22.7721C5.6123 19.2 8.1836 16.2284 11.5786 15.6125C12.7488 16.9367 13.4648 18.6689 13.4648 20.5781C13.4648 24.1194 11.0013 27.091 7.6832 27.8609Z" fill="white"/>
</mask>
<g mask="url(#mask8_43_658)">
<path d="M13.4648 15.6047H5.6123V27.853H13.4648V15.6047Z" fill="url(#paint8_linear_43_658)"/>
</g>
<path fill-rule="evenodd" clip-rule="evenodd" d="M12.6041 28.8074C9.78641 28.0298 7.70782 25.4508 7.70782 22.3791C7.70782 21.8402 7.76941 21.3167 7.89258 20.8163C8.18513 19.5846 8.8241 18.4914 9.69403 17.6292C8.45458 18.4067 7.50766 19.6154 7.08424 21.055C6.92257 21.5939 6.83789 22.1713 6.83789 22.764C6.84559 26.0128 9.40149 28.6611 12.6041 28.8074Z" fill="white"/>
<mask id="mask9_43_658" style="mask-type:luminance" maskUnits="userSpaceOnUse" x="13" y="7" width="15" height="22">
<path d="M25.8684 22.818C24.7521 25.4894 21.9267 29.9083 18.2854 28.1685C16.3376 27.237 16.9612 25.3585 16.4916 23.6495C15.1752 18.8379 12.6039 17.0365 13.928 12.4943C16.5917 3.40242 32.0272 8.1062 25.8684 22.818Z" fill="white"/>
</mask>
<g mask="url(#mask9_43_658)">
<path d="M32.0268 3.40234H12.6035V29.9083H32.0268V3.40234Z" fill="url(#paint9_linear_43_658)"/>
</g>
<mask id="mask10_43_658" style="mask-type:luminance" maskUnits="userSpaceOnUse" x="17" y="14" width="11" height="15">
<path d="M25.8694 22.8178C24.7531 25.4892 21.9277 29.9081 18.2863 28.1683C18.1709 28.1144 18.0708 28.0528 17.9707 27.9912C20.95 28.0451 28.0557 21.3243 27.078 14.1262C27.5707 16.4358 27.3244 19.3458 25.8694 22.8178Z" fill="white"/>
</mask>
<g mask="url(#mask10_43_658)">
<path d="M28.0479 14.1262H17.9629V29.9081H28.0479V14.1262Z" fill="url(#paint10_linear_43_658)"/>
</g>
<mask id="mask11_43_658" style="mask-type:luminance" maskUnits="userSpaceOnUse" x="13" y="7" width="10" height="14">
<path d="M15.5464 20.9705C14.2684 17.9603 12.875 16.0819 13.9297 12.4867C14.9998 8.82993 18.1408 7.4057 21.1124 7.97539C21.7668 9.23025 22.1286 10.6622 22.1286 12.1788C22.1363 16.3437 19.3571 19.8619 15.5464 20.9705Z" fill="white"/>
</mask>
<g mask="url(#mask11_43_658)">
<path d="M22.1354 7.40576H12.8818V20.9705H22.1354V7.40576Z" fill="url(#paint11_linear_43_658)"/>
</g>
<path fill-rule="evenodd" clip-rule="evenodd" d="M17.7311 22.0175C17.7311 22.0175 14.6979 18.276 14.9827 14.1881C15.1829 11.3551 17.454 11.0471 16.5224 14.3652C16.0605 16.005 16.5378 18.6224 17.7311 22.0175Z" fill="white"/>
<path d="M41.8779 10.6625V14.9504H47.3078V17.1043H41.8779V23.0051H39.173V8.51862H48.3097V10.6625H41.8779ZM51.6632 14.5096C51.9837 13.8951 52.3644 13.4142 52.8053 13.0669C53.2461 12.713 53.767 12.536 54.3681 12.536C54.8423 12.536 55.223 12.6395 55.5102 12.8465L55.3499 14.6999C55.3165 14.8202 55.2664 14.907 55.1996 14.9604C55.1395 15.0072 55.056 15.0305 54.9492 15.0305C54.849 15.0305 54.6987 15.0138 54.4983 14.9804C54.3047 14.947 54.1143 14.9304 53.9273 14.9304C53.6535 14.9304 53.4097 14.9704 53.196 15.0506C52.9822 15.1307 52.7886 15.2476 52.6149 15.4012C52.4479 15.5481 52.2977 15.7285 52.1641 15.9422C52.0372 16.1559 51.917 16.3997 51.8034 16.6735V23.0051H49.3289V12.7263H50.7815C51.0353 12.7263 51.2123 12.7731 51.3125 12.8666C51.4127 12.9534 51.4795 13.1137 51.5129 13.3475L51.6632 14.5096ZM65.6597 12.7263V23.0051H64.1469C63.8197 23.0051 63.6126 22.8549 63.5258 22.5543L63.3555 21.7328C62.9347 22.1602 62.4705 22.5075 61.9629 22.7747C61.4553 23.0352 60.8576 23.1654 60.1697 23.1654C59.6086 23.1654 59.1111 23.0719 58.6769 22.8849C58.2495 22.6912 57.8888 22.4207 57.595 22.0734C57.3011 21.7261 57.0773 21.3154 56.9237 20.8412C56.7768 20.3603 56.7033 19.8327 56.7033 19.2583V12.7263H59.1778V19.2583C59.1778 19.8861 59.3214 20.3736 59.6086 20.7209C59.9025 21.0616 60.34 21.2319 60.921 21.2319C61.3485 21.2319 61.7492 21.1384 62.1232 20.9514C62.4973 20.7577 62.8512 20.4939 63.1852 20.1599V12.7263H65.6597ZM70.678 12.7263V23.0051H68.1934V12.7263H70.678ZM71.0186 9.73084C71.0186 9.94456 70.9752 10.1449 70.8883 10.3319C70.8015 10.5189 70.6846 10.6826 70.5377 10.8228C70.3974 10.9631 70.2305 11.0766 70.0368 11.1635C69.8431 11.2436 69.636 11.2837 69.4156 11.2837C69.2019 11.2837 68.9982 11.2436 68.8045 11.1635C68.6175 11.0766 68.4539 10.9631 68.3136 10.8228C68.1734 10.6826 68.0598 10.5189 67.973 10.3319C67.8929 10.1449 67.8528 9.94456 67.8528 9.73084C67.8528 9.51044 67.8929 9.30339 67.973 9.1097C68.0598 8.91601 68.1734 8.74904 68.3136 8.60879C68.4539 8.46853 68.6175 8.35833 68.8045 8.27818C68.9982 8.19136 69.2019 8.14794 69.4156 8.14794C69.636 8.14794 69.8431 8.19136 70.0368 8.27818C70.2305 8.35833 70.3974 8.46853 70.5377 8.60879C70.6846 8.74904 70.8015 8.91601 70.8883 9.1097C70.9752 9.30339 71.0186 9.51044 71.0186 9.73084ZM76.627 23.1654C75.732 23.1654 75.0441 22.915 74.5632 22.414C74.089 21.9064 73.8519 21.2085 73.8519 20.3202V14.5797H72.8C72.6664 14.5797 72.5528 14.5363 72.4593 14.4495C72.3658 14.3626 72.3191 14.2324 72.3191 14.0588V13.077L73.9721 12.8065L74.4931 10.0013C74.5265 9.86776 74.5899 9.76423 74.6834 9.69076C74.7769 9.6173 74.8971 9.58056 75.0441 9.58056H76.3264V12.8165H79.0714V14.5797H76.3264V20.1499C76.3264 20.4705 76.4032 20.7209 76.5568 20.9013C76.7171 21.0816 76.9342 21.1718 77.208 21.1718C77.3616 21.1718 77.4885 21.1551 77.5887 21.1217C77.6956 21.0816 77.7858 21.0415 77.8592 21.0015C77.9394 20.9614 78.0095 20.9247 78.0696 20.8913C78.1297 20.8512 78.1898 20.8311 78.2499 20.8311C78.3234 20.8311 78.3835 20.8512 78.4303 20.8913C78.477 20.9247 78.5271 20.9781 78.5805 21.0516L79.3219 22.2538C78.9612 22.5543 78.5471 22.7814 78.0796 22.935C77.6121 23.0886 77.1279 23.1654 76.627 23.1654ZM91.3386 20.9013C91.8395 20.9013 92.2603 20.8412 92.6009 20.7209C92.9415 20.6007 93.212 20.4404 93.4124 20.2401C93.6194 20.0397 93.7663 19.8059 93.8532 19.5388C93.9467 19.2716 93.9934 18.9878 93.9934 18.6872C93.9934 18.3733 93.9433 18.0928 93.8431 17.8457C93.743 17.5919 93.586 17.3782 93.3723 17.2045C93.1586 17.0242 92.8814 16.8873 92.5408 16.7938C92.2068 16.7003 91.8027 16.6535 91.3285 16.6535H88.6136V20.9013H91.3386ZM88.6136 10.6024V14.7901H90.7575C91.6792 14.7901 92.3738 14.6231 92.8413 14.2892C93.3155 13.9552 93.5526 13.4243 93.5526 12.6963C93.5526 11.9415 93.3389 11.4039 92.9114 11.0833C92.484 10.7627 91.8161 10.6024 90.9078 10.6024H88.6136ZM90.9078 8.51862C91.8562 8.51862 92.6677 8.60879 93.3422 8.78912C94.0168 8.96945 94.5678 9.22658 94.9953 9.56053C95.4294 9.89447 95.7466 10.2985 95.947 10.7727C96.1474 11.2469 96.2475 11.7813 96.2475 12.3757C96.2475 12.7163 96.1975 13.0436 96.0973 13.3575C95.9971 13.6647 95.8401 13.9552 95.6264 14.2291C95.4194 14.4962 95.1522 14.74 94.8249 14.9604C94.5044 15.1808 94.1203 15.3678 93.6728 15.5214C95.6631 15.9689 96.6583 17.0442 96.6583 18.7473C96.6583 19.3618 96.5414 19.9295 96.3077 20.4505C96.0739 20.9714 95.7333 21.4222 95.2858 21.8029C94.8383 22.1769 94.2873 22.4708 93.6328 22.6845C92.9782 22.8983 92.2302 23.0051 91.3887 23.0051H85.9186V8.51862H90.9078ZM107.396 12.7263V23.0051H105.883C105.556 23.0051 105.349 22.8549 105.262 22.5543L105.092 21.7328C104.671 22.1602 104.207 22.5075 103.699 22.7747C103.192 23.0352 102.594 23.1654 101.906 23.1654C101.345 23.1654 100.848 23.0719 100.413 22.8849C99.986 22.6912 99.6253 22.4207 99.3315 22.0734C99.0376 21.7261 98.8139 21.3154 98.6602 20.8412C98.5133 20.3603 98.4398 19.8327 98.4398 19.2583V12.7263H100.914V19.2583C100.914 19.8861 101.058 20.3736 101.345 20.7209C101.639 21.0616 102.076 21.2319 102.658 21.2319C103.085 21.2319 103.486 21.1384 103.86 20.9514C104.234 20.7577 104.588 20.4939 104.922 20.1599V12.7263H107.396ZM112.184 14.5096C112.505 13.8951 112.885 13.4142 113.326 13.0669C113.767 12.713 114.288 12.536 114.889 12.536C115.363 12.536 115.744 12.6395 116.031 12.8465L115.871 14.6999C115.837 14.8202 115.787 14.907 115.721 14.9604C115.66 15.0072 115.577 15.0305 115.47 15.0305C115.37 15.0305 115.22 15.0138 115.019 14.9804C114.826 14.947 114.635 14.9304 114.448 14.9304C114.174 14.9304 113.931 14.9704 113.717 15.0506C113.503 15.1307 113.309 15.2476 113.136 15.4012C112.969 15.5481 112.819 15.7285 112.685 15.9422C112.558 16.1559 112.438 16.3997 112.324 16.6735V23.0051H109.85V12.7263H111.302C111.556 12.7263 111.733 12.7731 111.833 12.8666C111.934 12.9534 112 13.1137 112.034 13.3475L112.184 14.5096ZM123.557 14.73C123.49 14.8368 123.42 14.9137 123.346 14.9604C123.273 15.0005 123.179 15.0205 123.066 15.0205C122.946 15.0205 122.815 14.9871 122.675 14.9203C122.542 14.8535 122.385 14.7801 122.204 14.6999C122.024 14.6131 121.817 14.5363 121.583 14.4695C121.356 14.4027 121.086 14.3693 120.772 14.3693C120.284 14.3693 119.9 14.4728 119.62 14.6799C119.346 14.8869 119.209 15.1574 119.209 15.4914C119.209 15.7118 119.279 15.8988 119.419 16.0524C119.566 16.1993 119.756 16.3296 119.99 16.4431C120.231 16.5567 120.501 16.6602 120.802 16.7537C121.102 16.8405 121.406 16.9374 121.713 17.0442C122.027 17.1511 122.335 17.2746 122.635 17.4149C122.936 17.5485 123.203 17.7221 123.437 17.9359C123.677 18.1429 123.867 18.3934 124.008 18.6872C124.154 18.9811 124.228 19.3351 124.228 19.7492C124.228 20.2434 124.138 20.7009 123.957 21.1217C123.784 21.5358 123.523 21.8964 123.176 22.2037C122.829 22.5042 122.398 22.7413 121.884 22.915C121.376 23.0819 120.788 23.1654 120.12 23.1654C119.766 23.1654 119.419 23.132 119.079 23.0652C118.745 23.0051 118.421 22.9183 118.107 22.8048C117.8 22.6912 117.512 22.5576 117.245 22.404C116.985 22.2504 116.754 22.0834 116.554 21.9031L117.125 20.9614C117.198 20.8478 117.285 20.761 117.385 20.7009C117.486 20.6408 117.613 20.6107 117.766 20.6107C117.92 20.6107 118.063 20.6542 118.197 20.741C118.337 20.8278 118.497 20.9213 118.678 21.0215C118.858 21.1217 119.069 21.2152 119.309 21.302C119.556 21.3888 119.867 21.4322 120.241 21.4322C120.535 21.4322 120.785 21.3989 120.992 21.3321C121.206 21.2586 121.379 21.1651 121.513 21.0516C121.653 20.938 121.753 20.8078 121.814 20.6608C121.88 20.5072 121.914 20.3503 121.914 20.19C121.914 19.9495 121.84 19.7525 121.693 19.5989C121.553 19.4453 121.363 19.3117 121.122 19.1982C120.889 19.0846 120.618 18.9844 120.311 18.8976C120.01 18.8041 119.7 18.7039 119.379 18.5971C119.065 18.4902 118.755 18.3666 118.447 18.2264C118.147 18.0794 117.876 17.8958 117.636 17.6754C117.402 17.455 117.212 17.1845 117.065 16.8639C116.925 16.5433 116.854 16.1559 116.854 15.7018C116.854 15.281 116.938 14.8803 117.105 14.4996C117.272 14.1189 117.516 13.7883 117.836 13.5077C118.164 13.2206 118.568 12.9935 119.048 12.8265C119.536 12.6529 120.097 12.566 120.732 12.566C121.44 12.566 122.084 12.6829 122.665 12.9167C123.246 13.1504 123.73 13.4577 124.118 13.8384L123.557 14.73ZM129.517 23.1654C128.622 23.1654 127.934 22.915 127.453 22.414C126.979 21.9064 126.742 21.2085 126.742 20.3202V14.5797H125.69C125.556 14.5797 125.443 14.5363 125.349 14.4495C125.256 14.3626 125.209 14.2324 125.209 14.0588V13.077L126.862 12.8065L127.383 10.0013C127.416 9.86776 127.48 9.76423 127.573 9.69076C127.667 9.6173 127.787 9.58056 127.934 9.58056H129.216V12.8165H131.961V14.5797H129.216V20.1499C129.216 20.4705 129.293 20.7209 129.447 20.9013C129.607 21.0816 129.824 21.1718 130.098 21.1718C130.251 21.1718 130.378 21.1551 130.478 21.1217C130.585 21.0816 130.675 21.0415 130.749 21.0015C130.829 20.9614 130.899 20.9247 130.959 20.8913C131.019 20.8512 131.08 20.8311 131.14 20.8311C131.213 20.8311 131.273 20.8512 131.32 20.8913C131.367 20.9247 131.417 20.9781 131.47 21.0516L132.212 22.2538C131.851 22.5543 131.437 22.7814 130.969 22.935C130.502 23.0886 130.018 23.1654 129.517 23.1654Z" fill="#121212"/>
<defs>
<linearGradient id="paint0_linear_43_658" x1="10.8661" y1="15.4633" x2="-1.49424" y2="15.4633" gradientUnits="userSpaceOnUse">
<stop stop-color="#FF0000"/>
<stop offset="1" stop-color="#F38288"/>
</linearGradient>
<linearGradient id="paint1_linear_43_658" x1="10.8963" y1="14.6421" x2="1.07933" y2="14.6421" gradientUnits="userSpaceOnUse">
<stop stop-color="#FF0000"/>
<stop offset="1" stop-color="#F38288"/>
</linearGradient>
<linearGradient id="paint2_linear_43_658" x1="12.7928" y1="6.98747" x2="21.0112" y2="-1.23096" gradientUnits="userSpaceOnUse">
<stop stop-color="#4BBC39"/>
<stop offset="1" stop-color="#BEDE19"/>
</linearGradient>
<linearGradient id="paint3_linear_43_658" x1="13.685" y1="9.64618" x2="21.9865" y2="1.34465" gradientUnits="userSpaceOnUse">
<stop stop-color="#3AA34E"/>
<stop offset="1" stop-color="#BEDE19"/>
</linearGradient>
<linearGradient id="paint4_linear_43_658" x1="10.2045" y1="7.29825" x2="1.77997" y2="7.29825" gradientUnits="userSpaceOnUse">
<stop stop-color="#4BBC39"/>
<stop offset="1" stop-color="#BEDE19"/>
</linearGradient>
<linearGradient id="paint5_linear_43_658" x1="12.1536" y1="8.35988" x2="2.16" y2="5.68214" gradientUnits="userSpaceOnUse">
<stop stop-color="#3AA34E"/>
<stop offset="1" stop-color="#BEDE19"/>
</linearGradient>
<linearGradient id="paint6_linear_43_658" x1="6.28159" y1="22.7696" x2="16.9189" y2="22.7696" gradientUnits="userSpaceOnUse">
<stop stop-color="#FFBE04"/>
<stop offset="1" stop-color="#FF7F00"/>
</linearGradient>
<linearGradient id="paint7_linear_43_658" x1="6.20294" y1="22.8394" x2="14.7466" y2="22.8394" gradientUnits="userSpaceOnUse">
<stop stop-color="#FFBE04"/>
<stop offset="1" stop-color="#FF7F00"/>
</linearGradient>
<linearGradient id="paint8_linear_43_658" x1="9.33837" y1="21.7341" x2="16.8188" y2="21.7341" gradientUnits="userSpaceOnUse">
<stop stop-color="#FFBE04"/>
<stop offset="1" stop-color="#FF7F00"/>
</linearGradient>
<linearGradient id="paint9_linear_43_658" x1="26.1972" y1="16.6554" x2="14.5725" y2="16.6554" gradientUnits="userSpaceOnUse">
<stop stop-color="#016737"/>
<stop offset="1" stop-color="#4BBC39"/>
</linearGradient>
<linearGradient id="paint10_linear_43_658" x1="23.9488" y1="22.0192" x2="16.074" y2="22.0192" gradientUnits="userSpaceOnUse">
<stop stop-color="#016737"/>
<stop offset="1" stop-color="#4BBC39"/>
</linearGradient>
<linearGradient id="paint11_linear_43_658" x1="26.2837" y1="14.1897" x2="15.9817" y2="14.1897" gradientUnits="userSpaceOnUse">
<stop stop-color="#016737"/>
<stop offset="1" stop-color="#4BBC39"/>
</linearGradient>
</defs>
</svg>
