<svg width="20" height="18" viewBox="0 0 20 18" fill="none" xmlns="http://www.w3.org/2000/svg">
    <path
        d="M16.888 6.976C17.092 6.312 17.2 5.64 17.2 4.976C17.2 2.404 15.228 0.311996 12.8 0.311996C11.148 0.311996 9.63202 1.212 8.80002 2.62C7.96802 1.212 6.45202 0.311996 4.80002 0.311996C2.37202 0.311996 0.400024 2.404 0.400024 4.976C0.400024 10.84 8.27602 15.104 8.61203 15.284C8.67202 15.316 8.73602 15.332 8.80002 15.332C8.86402 15.332 8.92802 15.316 8.98802 15.284C9.00002 15.276 9.28802 15.124 9.74403 14.84C11.344 16.52 13.272 17.568 13.412 17.64C13.472 17.672 13.536 17.688 13.6 17.688C13.664 17.688 13.728 17.672 13.788 17.64C14.024 17.516 19.6 14.492 19.6 10.32C19.6 8.628 18.42 7.228 16.888 6.976ZM8.80002 14.472C7.61202 13.792 1.20002 9.884 1.20002 4.976C1.20002 2.844 2.81602 1.112 4.80002 1.112C6.14002 1.112 7.78002 1.908 8.42402 3.692C8.48002 3.852 8.63202 3.956 8.80002 3.956C8.96802 3.956 9.12002 3.852 9.17602 3.692C9.82002 1.908 11.46 1.112 12.8 1.112C14.784 1.112 16.4 2.844 16.4 4.976C16.4 5.632 16.28 6.296 16.052 6.956C15.056 7.06 14.156 7.612 13.6 8.444C12.98 7.516 11.932 6.932 10.8 6.932C9.03603 6.932 7.60002 8.452 7.60002 10.32C7.60002 11.796 8.29602 13.124 9.20402 14.232C9.04002 14.332 8.90002 14.416 8.80002 14.472ZM13.6 16.828C12.644 16.272 8.40002 13.616 8.40002 10.32C8.40002 8.892 9.47602 7.732 10.8 7.732C11.696 7.732 12.792 8.264 13.224 9.46C13.28 9.62 13.432 9.724 13.6 9.724C13.768 9.724 13.92 9.62 13.976 9.46C14.408 8.268 15.504 7.732 16.4 7.732C17.724 7.732 18.8 8.892 18.8 10.32C18.8 13.616 14.556 16.272 13.6 16.828Z"
        fill="black" />
</svg>